<mxfile host="app.diagrams.net" modified="2022-10-07T00:50:27.762Z" agent="5.0 (Windows)" etag="i8lzjAhyLm0X-dx1hXxe" version="20.4.0" type="github">
  <diagram name="Page-1" id="c4acf3e9-155e-7222-9cf6-157b1a14988f">
    <mxGraphModel dx="1185" dy="650" grid="1" gridSize="10" guides="1" tooltips="1" connect="1" arrows="1" fold="1" page="1" pageScale="1" pageWidth="850" pageHeight="1100" background="none" math="0" shadow="0">
      <root>
        <mxCell id="0" />
        <mxCell id="1" parent="0" />
        <mxCell id="Am78hrqz9wCSP0B55UWN-1" value="" style="shape=folder;fontStyle=1;spacingTop=10;tabWidth=110;tabHeight=30;tabPosition=left;html=1;" vertex="1" parent="1">
          <mxGeometry x="170" y="150" width="860" height="320" as="geometry" />
        </mxCell>
        <mxCell id="Am78hrqz9wCSP0B55UWN-2" value="PasswordPanagerClient" style="verticalAlign=top;align=left;spacingTop=8;spacingLeft=2;spacingRight=12;shape=cube;size=10;direction=south;fontStyle=4;html=1;" vertex="1" parent="1">
          <mxGeometry x="200" y="300" width="170" height="60" as="geometry" />
        </mxCell>
        <mxCell id="Am78hrqz9wCSP0B55UWN-3" value="PasswordPanagerServer" style="verticalAlign=top;align=left;spacingTop=8;spacingLeft=2;spacingRight=12;shape=cube;size=10;direction=south;fontStyle=4;html=1;" vertex="1" parent="1">
          <mxGeometry x="520" y="300" width="170" height="60" as="geometry" />
        </mxCell>
        <mxCell id="Am78hrqz9wCSP0B55UWN-4" value="Database" style="verticalAlign=top;align=left;spacingTop=8;spacingLeft=2;spacingRight=12;shape=cube;size=10;direction=south;fontStyle=4;html=1;" vertex="1" parent="1">
          <mxGeometry x="840" y="300" width="170" height="60" as="geometry" />
        </mxCell>
        <mxCell id="Am78hrqz9wCSP0B55UWN-9" value="" style="endArrow=none;html=1;rounded=0;exitX=0;exitY=0;exitDx=60;exitDy=90;exitPerimeter=0;entryX=1;entryY=1;entryDx=0;entryDy=0;entryPerimeter=0;" edge="1" parent="1" source="Am78hrqz9wCSP0B55UWN-2" target="Am78hrqz9wCSP0B55UWN-3">
          <mxGeometry width="50" height="50" relative="1" as="geometry">
            <mxPoint x="380" y="500" as="sourcePoint" />
            <mxPoint x="430" y="450" as="targetPoint" />
            <Array as="points">
              <mxPoint x="310" y="440" />
              <mxPoint x="430" y="440" />
            </Array>
          </mxGeometry>
        </mxCell>
        <mxCell id="Am78hrqz9wCSP0B55UWN-10" value="" style="endArrow=none;html=1;rounded=0;exitX=0;exitY=0;exitDx=60;exitDy=10;exitPerimeter=0;entryX=0;entryY=0;entryDx=60;entryDy=90;entryPerimeter=0;" edge="1" parent="1" source="Am78hrqz9wCSP0B55UWN-3" target="Am78hrqz9wCSP0B55UWN-4">
          <mxGeometry width="50" height="50" relative="1" as="geometry">
            <mxPoint x="650" y="450" as="sourcePoint" />
            <mxPoint x="700" y="400" as="targetPoint" />
            <Array as="points">
              <mxPoint x="710" y="440" />
              <mxPoint x="880" y="440" />
            </Array>
          </mxGeometry>
        </mxCell>
        <mxCell id="Am78hrqz9wCSP0B55UWN-11" value="&lt;span dir=&quot;ltr&quot; role=&quot;presentation&quot; style=&quot;left: 376.687px; top: 237.975px; font-size: 9.4626px; font-family: sans-serif; transform: scaleX(0.98024);&quot;&gt;&amp;lt;&amp;lt;call, integrity, secrecy&amp;gt;&amp;gt;&lt;/span&gt;" style="endArrow=open;endSize=12;dashed=1;html=1;rounded=0;exitX=0;exitY=0;exitDx=0;exitDy=80;exitPerimeter=0;entryX=0;entryY=0;entryDx=0;entryDy=80;entryPerimeter=0;" edge="1" parent="1" source="Am78hrqz9wCSP0B55UWN-2" target="Am78hrqz9wCSP0B55UWN-3">
          <mxGeometry width="160" relative="1" as="geometry">
            <mxPoint x="340" y="210" as="sourcePoint" />
            <mxPoint x="500" y="210" as="targetPoint" />
            <Array as="points">
              <mxPoint x="330" y="200" />
              <mxPoint x="360" y="200" />
              <mxPoint x="500" y="200" />
            </Array>
          </mxGeometry>
        </mxCell>
        <mxCell id="Am78hrqz9wCSP0B55UWN-12" value="&lt;span dir=&quot;ltr&quot; role=&quot;presentation&quot; style=&quot;left: 376.687px; top: 237.975px; font-size: 9.4626px; font-family: sans-serif; transform: scaleX(0.98024);&quot;&gt;&amp;lt;&amp;lt;call, integrity, secrecy&amp;gt;&amp;gt;&lt;/span&gt;" style="endArrow=open;endSize=12;dashed=1;html=1;rounded=0;exitX=0;exitY=0;exitDx=0;exitDy=160;exitPerimeter=0;entryX=0;entryY=0;entryDx=0;entryDy=0;entryPerimeter=0;" edge="1" parent="1" source="Am78hrqz9wCSP0B55UWN-3" target="Am78hrqz9wCSP0B55UWN-2">
          <mxGeometry width="160" relative="1" as="geometry">
            <mxPoint x="580" y="220" as="sourcePoint" />
            <mxPoint x="740" y="220" as="targetPoint" />
            <Array as="points">
              <mxPoint x="520" y="260" />
              <mxPoint x="440" y="260" />
              <mxPoint x="420" y="260" />
              <mxPoint x="380" y="260" />
            </Array>
          </mxGeometry>
        </mxCell>
        <mxCell id="Am78hrqz9wCSP0B55UWN-13" value="&lt;span dir=&quot;ltr&quot; role=&quot;presentation&quot; style=&quot;left: 376.687px; top: 237.975px; font-size: 9.4626px; font-family: sans-serif; transform: scaleX(0.98024);&quot;&gt;&amp;lt;&amp;lt;sends, integrity, secrecy&amp;gt;&amp;gt;&lt;/span&gt;" style="endArrow=open;endSize=12;dashed=1;html=1;rounded=0;entryX=0;entryY=0;entryDx=0;entryDy=0;entryPerimeter=0;exitX=0;exitY=0;exitDx=0;exitDy=80;exitPerimeter=0;" edge="1" parent="1" source="Am78hrqz9wCSP0B55UWN-4" target="Am78hrqz9wCSP0B55UWN-3">
          <mxGeometry width="160" relative="1" as="geometry">
            <mxPoint x="700" y="210" as="sourcePoint" />
            <mxPoint x="860" y="210" as="targetPoint" />
            <Array as="points">
              <mxPoint x="850" y="220" />
              <mxPoint x="730" y="220" />
            </Array>
          </mxGeometry>
        </mxCell>
        <mxCell id="Am78hrqz9wCSP0B55UWN-14" value="&lt;span dir=&quot;ltr&quot; role=&quot;presentation&quot; style=&quot;left: 376.687px; top: 237.975px; font-size: 9.4626px; font-family: sans-serif; transform: scaleX(0.98024);&quot;&gt;&amp;lt;&amp;lt;sends, integrity, secrecy&amp;gt;&amp;gt;&lt;/span&gt;" style="endArrow=open;endSize=12;dashed=1;html=1;rounded=0;exitX=0;exitY=0;exitDx=25;exitDy=0;exitPerimeter=0;entryX=-0.006;entryY=0.675;entryDx=0;entryDy=0;entryPerimeter=0;" edge="1" parent="1" source="Am78hrqz9wCSP0B55UWN-3" target="Am78hrqz9wCSP0B55UWN-4">
          <mxGeometry x="0.2141" width="160" relative="1" as="geometry">
            <mxPoint x="680" y="400" as="sourcePoint" />
            <mxPoint x="840" y="400" as="targetPoint" />
            <Array as="points">
              <mxPoint x="740" y="280" />
              <mxPoint x="820" y="280" />
            </Array>
            <mxPoint as="offset" />
          </mxGeometry>
        </mxCell>
        <mxCell id="Am78hrqz9wCSP0B55UWN-15" value="+client" style="text;strokeColor=none;fillColor=none;align=left;verticalAlign=top;spacingLeft=4;spacingRight=4;overflow=hidden;rotatable=0;points=[[0,0.5],[1,0.5]];portConstraint=eastwest;fontSize=9;" vertex="1" parent="1">
          <mxGeometry x="300" y="370" width="50" height="20" as="geometry" />
        </mxCell>
        <mxCell id="Am78hrqz9wCSP0B55UWN-16" value="+server" style="text;strokeColor=none;fillColor=none;align=left;verticalAlign=top;spacingLeft=4;spacingRight=4;overflow=hidden;rotatable=0;points=[[0,0.5],[1,0.5]];portConstraint=eastwest;fontSize=9;" vertex="1" parent="1">
          <mxGeometry x="510" y="370" width="50" height="20" as="geometry" />
        </mxCell>
        <mxCell id="Am78hrqz9wCSP0B55UWN-17" value="+server" style="text;strokeColor=none;fillColor=none;align=left;verticalAlign=top;spacingLeft=4;spacingRight=4;overflow=hidden;rotatable=0;points=[[0,0.5],[1,0.5]];portConstraint=eastwest;fontSize=9;" vertex="1" parent="1">
          <mxGeometry x="690" y="360" width="50" height="20" as="geometry" />
        </mxCell>
        <mxCell id="Am78hrqz9wCSP0B55UWN-18" value="+database" style="text;strokeColor=none;fillColor=none;align=left;verticalAlign=top;spacingLeft=4;spacingRight=4;overflow=hidden;rotatable=0;points=[[0,0.5],[1,0.5]];portConstraint=eastwest;fontSize=9;" vertex="1" parent="1">
          <mxGeometry x="920" y="370" width="50" height="20" as="geometry" />
        </mxCell>
        <mxCell id="Am78hrqz9wCSP0B55UWN-19" value="&lt;&lt;internet&gt;&gt;" style="text;align=center;fontStyle=1;verticalAlign=middle;spacingLeft=3;spacingRight=3;strokeColor=none;rotatable=0;points=[[0,0.5],[1,0.5]];portConstraint=eastwest;fontSize=9;" vertex="1" parent="1">
          <mxGeometry x="330" y="420" width="80" height="16" as="geometry" />
        </mxCell>
        <mxCell id="Am78hrqz9wCSP0B55UWN-20" value="&lt;&lt;LAN&gt;&gt;" style="text;align=center;fontStyle=1;verticalAlign=middle;spacingLeft=3;spacingRight=3;strokeColor=none;rotatable=0;points=[[0,0.5],[1,0.5]];portConstraint=eastwest;fontSize=9;" vertex="1" parent="1">
          <mxGeometry x="760" y="420" width="80" height="16" as="geometry" />
        </mxCell>
        <mxCell id="Am78hrqz9wCSP0B55UWN-21" value="&lt;&lt;secure links&gt;&gt;&#xa;Password Manager&#xa;" style="text;align=center;fontStyle=1;verticalAlign=middle;spacingLeft=3;spacingRight=3;strokeColor=none;rotatable=0;points=[[0,0.5],[1,0.5]];portConstraint=eastwest;fontSize=9;" vertex="1" parent="1">
          <mxGeometry x="190" y="160" width="70" height="20" as="geometry" />
        </mxCell>
        <mxCell id="Am78hrqz9wCSP0B55UWN-22" value="&lt;div&gt;&amp;lt;&amp;lt;secure links&amp;gt;&amp;gt;&lt;/div&gt;&lt;div&gt;adversary = default&lt;br&gt;&lt;/div&gt;" style="html=1;fontSize=9;" vertex="1" parent="1">
          <mxGeometry x="330" y="110" width="110" height="50" as="geometry" />
        </mxCell>
        <mxCell id="Am78hrqz9wCSP0B55UWN-24" value="" style="endArrow=none;dashed=1;html=1;dashPattern=1 3;strokeWidth=2;rounded=0;fontSize=9;exitX=0;exitY=0;exitDx=110;exitDy=0;exitPerimeter=0;entryX=0;entryY=0.5;entryDx=0;entryDy=0;" edge="1" parent="1" source="Am78hrqz9wCSP0B55UWN-1" target="Am78hrqz9wCSP0B55UWN-22">
          <mxGeometry width="50" height="50" relative="1" as="geometry">
            <mxPoint x="250" y="100" as="sourcePoint" />
            <mxPoint x="300" y="50" as="targetPoint" />
          </mxGeometry>
        </mxCell>
      </root>
    </mxGraphModel>
  </diagram>
</mxfile>
